<svg width="45" height="45" viewBox="0 0 45 45" fill="none" xmlns="http://www.w3.org/2000/svg">
<g clip-path="url(#clip0_1_134)">
<g clip-path="url(#clip1_1_134)">
<g clip-path="url(#clip2_1_134)">
<path d="M33.3334 1.28955H10.3334C4.81051 1.28955 0.333359 5.7667 0.333359 11.2896V34.2896C0.333359 39.8124 4.81051 44.2896 10.3334 44.2896H33.3334C38.8562 44.2896 43.3334 39.8124 43.3334 34.2896V11.2896C43.3334 5.7667 38.8562 1.28955 33.3334 1.28955Z" fill="#2E2E2E"/>
<path d="M28.025 22.9158C28.0141 21.1125 28.854 19.7534 30.5502 18.7513C29.6015 17.4292 28.1663 16.702 26.2745 16.5618C24.4832 16.4243 22.5234 17.5772 21.8058 17.5772C21.0474 17.5772 19.3132 16.6095 17.9487 16.6095C15.1327 16.6518 12.14 18.7936 12.14 23.1511C12.14 24.4388 12.3819 25.7688 12.8658 27.1385C13.5127 28.9417 15.8449 33.3601 18.2776 33.2887C19.5497 33.2596 20.4494 32.4108 22.1048 32.4108C23.7112 32.4108 24.543 33.2887 25.9619 33.2887C28.4164 33.2542 30.5257 29.2379 31.14 27.4293C27.8483 25.9195 28.025 23.0083 28.025 22.9158ZM25.1682 14.8512C26.5463 13.2594 26.4213 11.8104 26.3805 11.2896C25.1627 11.3583 23.7547 12.096 22.9529 13.0029C22.0695 13.976 21.5503 15.179 21.6617 16.5354C22.9773 16.6332 24.1788 15.9749 25.1682 14.8512Z" fill="white"/>
</g>
</g>
</g>
<defs>
<clipPath id="clip0_1_134">
<rect width="44" height="44" fill="white" transform="translate(0.139999 0.5)"/>
</clipPath>
<clipPath id="clip1_1_134">
<rect width="44" height="44" fill="white" transform="translate(0.139999 0.5)"/>
</clipPath>
<clipPath id="clip2_1_134">
<rect width="44" height="44" fill="white" transform="translate(0.139999 0.5)"/>
</clipPath>
</defs>
</svg>
