<svg width="71" height="70" viewBox="0 0 71 70" fill="none" xmlns="http://www.w3.org/2000/svg">
<g clip-path="url(#clip0_1_17)">
<path d="M35.5 70C54.83 70 70.5 54.33 70.5 35C70.5 15.67 54.83 0 35.5 0C16.17 0 0.5 15.67 0.5 35C0.5 54.33 16.17 70 35.5 70Z" fill="white"/>
<g filter="url(#filter0_d_1_17)">
<path d="M43 34.634C43.6667 35.0189 43.6667 35.9811 43 36.366L33.25 41.9952C32.5833 42.3801 31.75 41.899 31.75 41.1292V29.8708C31.75 29.101 32.5833 28.6199 33.25 29.0048L43 34.634Z" fill="#FDC55E"/>
</g>
</g>
<defs>
<filter id="filter0_d_1_17" x="16.75" y="21.8693" width="41.75" height="43.2614" filterUnits="userSpaceOnUse" color-interpolation-filters="sRGB">
<feFlood flood-opacity="0" result="BackgroundImageFix"/>
<feColorMatrix in="SourceAlpha" type="matrix" values="0 0 0 0 0 0 0 0 0 0 0 0 0 0 0 0 0 0 127 0" result="hardAlpha"/>
<feOffset dy="8"/>
<feGaussianBlur stdDeviation="7.5"/>
<feColorMatrix type="matrix" values="0 0 0 0 0.992157 0 0 0 0 0.772549 0 0 0 0 0.368627 0 0 0 0.2 0"/>
<feBlend mode="normal" in2="BackgroundImageFix" result="effect1_dropShadow_1_17"/>
<feBlend mode="normal" in="SourceGraphic" in2="effect1_dropShadow_1_17" result="shape"/>
</filter>
<clipPath id="clip0_1_17">
<rect width="70" height="70" fill="white" transform="translate(0.5)"/>
</clipPath>
</defs>
</svg>
