<svg width="17" height="17" viewBox="0 0 17 17" fill="none" xmlns="http://www.w3.org/2000/svg">
<rect width="17" height="17" fill="#F5F5F5"/>
<g id="hoanganf8.github.io by html.to.design &#226;&#157;&#164;&#239;&#184;&#143; FREE version - 28/01/2024, 14:33:57 GMT+7">
<rect width="1920" height="4513.69" transform="translate(-1339.5 -63)" fill="white"/>
<g id="Header &#226;&#134;&#146; Nav">
<g id="div#navbarSupportedContent">
<g id="List &#226;&#134;&#146; Item &#226;&#134;&#146; Form">
<g id="Input" filter="url(#filter0_d_0_1)">
<rect x="-19.52" y="-15" width="288" height="48" rx="8" fill="white" shape-rendering="crispEdges"/>
</g>
<g id="SVG" clip-path="url(#clip0_0_1)">
<path id="Vector" d="M15.692 15.453L11.884 11.493C12.8635 10.3309 13.4005 8.85986 13.4 7.34C13.3981 5.62727 12.7169 3.98523 11.5058 2.77414C10.2948 1.56306 8.65271 0.881858 6.93998 0.880005C5.22725 0.881858 3.5852 1.56306 2.37412 2.77414C1.16303 3.98523 0.481833 5.62727 0.47998 7.34C0.481833 9.05273 1.16303 10.6948 2.37412 11.9059C3.5852 13.117 5.22725 13.7982 6.93998 13.8C8.26501 13.8035 9.55835 13.395 10.641 12.631L14.478 16.621C14.5544 16.7012 14.6459 16.7655 14.7473 16.8101C14.8487 16.8548 14.9579 16.8788 15.0687 16.881C15.1794 16.8831 15.2895 16.8633 15.3926 16.8226C15.4956 16.7819 15.5896 16.7212 15.669 16.644C15.8293 16.4889 15.9216 16.2767 15.926 16.0537C15.9303 15.8308 15.8461 15.6152 15.692 15.454V15.453ZM6.93998 2.565C8.20598 2.56633 9.41975 3.06983 10.315 3.96503C11.2102 4.86023 11.7137 6.074 11.715 7.34C11.7137 8.60601 11.2102 9.81978 10.315 10.715C9.41975 11.6102 8.20598 12.1137 6.93998 12.115C5.67398 12.1137 4.46021 11.6102 3.56501 10.715C2.66981 9.81978 2.1663 8.60601 2.16498 7.34C2.1663 6.074 2.66981 4.86023 3.56501 3.96503C4.46021 3.06983 5.67398 2.56633 6.93998 2.565Z" fill="#8B8B8B"/>
</g>
</g>
</g>
</g>
</g>
<defs>
<filter id="filter0_d_0_1" x="-69.52" y="-45" width="388" height="148" filterUnits="userSpaceOnUse" color-interpolation-filters="sRGB">
<feFlood flood-opacity="0" result="BackgroundImageFix"/>
<feColorMatrix in="SourceAlpha" type="matrix" values="0 0 0 0 0 0 0 0 0 0 0 0 0 0 0 0 0 0 127 0" result="hardAlpha"/>
<feOffset dy="20"/>
<feGaussianBlur stdDeviation="25"/>
<feComposite in2="hardAlpha" operator="out"/>
<feColorMatrix type="matrix" values="0 0 0 0 0 0 0 0 0 0 0 0 0 0 0 0 0 0 0.04 0"/>
<feBlend mode="normal" in2="BackgroundImageFix" result="effect1_dropShadow_0_1"/>
<feBlend mode="normal" in="SourceGraphic" in2="effect1_dropShadow_0_1" result="shape"/>
</filter>
<clipPath id="clip0_0_1">
<rect width="16" height="16" fill="white" transform="translate(0.47998 0.880005)"/>
</clipPath>
</defs>
</svg>
