<svg width="156" height="42" viewBox="0 0 156 42" fill="none" xmlns="http://www.w3.org/2000/svg">
<g id="logo.svg" clip-path="url(#clip0_1_27)">
<path id="Vector" d="M65.2649 25.8618C63.9896 26.4894 62.7143 26.7177 61.3456 26.7177C57.1776 26.7177 54.2848 24.0646 54.2848 20.3276C54.2848 16.5335 57.1776 13.9375 61.4078 13.9375C63.6163 13.9375 65.4515 14.6507 67.0378 16.1911L70.2728 13.4525C68.1576 11.1989 64.9849 10.0007 61.159 10.0007C54.2226 10.0007 49.1836 14.3083 49.1836 20.3276C49.1836 26.3468 54.2226 30.6544 61.0657 30.6544C64.1762 30.6544 67.4733 29.7701 69.8684 28.1155V20.0138H65.2649V25.8618Z" fill="#2E2E2E"/>
<path id="Vector_2" d="M78.8417 16.9899V14.9645H74.2071V30.3121H79.0594V23.0662C79.0594 20.1279 80.8324 18.7871 83.5074 18.7871C83.8807 18.7871 84.1918 18.8156 84.5961 18.8442V14.7362C82.0144 14.7362 80.0237 15.5065 78.8417 16.9899Z" fill="#2E2E2E"/>
<path id="Vector_3" d="M95.2923 30.5403C100.611 30.5403 104.468 27.2597 104.468 22.6383C104.468 18.0169 100.611 14.7362 95.2923 14.7362C89.9734 14.7362 86.0853 18.0169 86.0853 22.6383C86.0853 27.2597 89.9734 30.5403 95.2923 30.5403ZM95.2923 26.8888C92.8662 26.8888 90.9999 25.2913 90.9999 22.6383C90.9999 19.9852 92.8662 18.3877 95.2923 18.3877C97.7185 18.3877 99.5537 19.9852 99.5537 22.6383C99.5537 25.2913 97.7185 26.8888 95.2923 26.8888Z" fill="#2E2E2E"/>
<path id="Vector_4" d="M119.2 14.9645L114.41 25.4054L109.776 14.9645H104.768L111.797 30.3121H116.805L123.866 14.9645H119.2Z" fill="#2E2E2E"/>
<path id="Vector_5" d="M141.783 22.6953C141.783 17.7601 137.988 14.7362 133.073 14.7362C127.972 14.7362 124.146 18.0454 124.146 22.6383C124.146 27.2026 127.91 30.5403 133.696 30.5403C136.713 30.5403 139.046 29.6845 140.601 28.0584L138.019 25.491C136.868 26.4894 135.593 26.9744 133.82 26.9744C131.269 26.9744 129.496 25.8048 129.03 23.8935H141.69C141.721 23.5226 141.783 23.0376 141.783 22.6953ZM133.105 18.1024C135.282 18.1024 136.868 19.3576 137.21 21.2975H128.968C129.31 19.3291 130.896 18.1024 133.105 18.1024Z" fill="#2E2E2E"/>
<path id="Vector_6" d="M149.648 16.9899V14.9645H145.013V30.3121H149.866V23.0662C149.866 20.1279 151.639 18.7871 154.314 18.7871C154.687 18.7871 154.998 18.8156 155.402 18.8442V14.7362C152.821 14.7362 150.83 15.5065 149.648 16.9899Z" fill="#2E2E2E"/>
<path id="Vector_7" d="M42.0775 20.7893C42.0775 32.2706 32.7701 41.578 21.2888 41.578C9.80745 41.578 0.5 32.2706 0.5 20.7893C0.5 9.30794 9.80745 0.000488281 21.2888 0.000488281C32.7701 0.000488281 42.0775 9.30794 42.0775 20.7893Z" fill="url(#paint0_linear_1_27)"/>
<path id="Vector_8" d="M21.3302 32.2973C21.3302 33.3228 20.5731 34.154 19.6392 34.154C18.7052 34.154 17.9481 33.3228 17.9481 32.2973C17.9481 31.2719 18.7052 30.4407 19.6392 30.4407C20.5731 30.4407 21.3302 31.2719 21.3302 32.2973Z" fill="white"/>
<path id="Vector_9" d="M28.7707 32.2973C28.7707 33.3228 28.0135 34.154 27.0796 34.154C26.1457 34.154 25.3885 33.3228 25.3885 32.2973C25.3885 31.2719 26.1457 30.4407 27.0796 30.4407C28.0135 30.4407 28.7707 31.2719 28.7707 32.2973Z" fill="white"/>
<path id="Vector_10" d="M24.1473 20.619L25.1586 20.6193V23.1661C25.1586 24.2228 24.5281 25.0789 23.6606 25.1964C23.2465 25.2552 22.7381 25.2846 22.1359 25.2846C17.193 25.2846 15.5576 18.6734 17.6777 14.3926L11.9275 10.7474C11.3614 10.3888 10.6374 10.6016 10.3106 11.2232C9.9836 11.8447 10.1776 12.6396 10.7437 12.9986L12.9581 14.4024C10.8889 21.8182 14.6325 28.9816 21.8535 28.9816C23.3029 28.9816 24.5924 28.8742 25.7218 28.6588C26.0137 28.6041 26.2824 28.5446 26.5382 28.4797C26.8239 28.4072 27.0936 28.3285 27.3613 28.2433C28.1668 27.9876 28.7131 27.0857 28.7131 26.0776V17.6777C28.7131 17.2603 28.4336 16.9219 28.0887 16.9219H21.0345C21.0345 16.9219 21.2134 17.4931 21.5491 18.1864C22.0677 19.2573 22.9604 20.619 24.1473 20.619Z" fill="white"/>
<path id="Vector_11" d="M15.0034 10.5817C17.6292 7.67122 21.6381 7.37785 25.3213 7.43116C25.6942 7.4366 26.0666 7.44204 26.4378 7.44385C26.5564 7.44422 26.638 7.57549 26.5944 7.69661C25.7885 9.93585 25.0846 10.9781 22.9829 11.1416C21.349 11.1416 19.8163 11.7341 18.6943 12.9214L15.0034 10.5817Z" fill="white"/>
</g>
<defs>
<linearGradient id="paint0_linear_1_27" x1="9.50847" y1="1.4854" x2="44.321" y2="33.9771" gradientUnits="userSpaceOnUse">
<stop stop-color="#FF5E5F"/>
<stop offset="1" stop-color="#F54748"/>
</linearGradient>
<clipPath id="clip0_1_27">
<rect width="155" height="42" fill="white" transform="translate(0.5)"/>
</clipPath>
</defs>
</svg>
