<svg version="1.2" xmlns="http://www.w3.org/2000/svg" viewBox="0 0 43 42" width="43" height="42"><defs><clipPath clipPathUnits="userSpaceOnUse" id="cp1"><path d="m0.5 0h155v42h-155z"/></clipPath><clipPath clipPathUnits="userSpaceOnUse" id="cp2"><path d="m0.5 0h155v42h-155z"/></clipPath><clipPath clipPathUnits="userSpaceOnUse" id="cp3"><path d="m0.5 0h155v42h-155z"/></clipPath><linearGradient id="P" gradientUnits="userSpaceOnUse"/><linearGradient id="g1" x2="1" href="#P" gradientTransform="matrix(34.813,32.492,-32.492,34.813,9.508,1.485)"><stop stop-color="#ff5e5f"/><stop offset="1" stop-color="#f54748"/></linearGradient></defs><style>.a{fill:#f5f5f5}.b{fill:#fff}.c{fill:#2e2e2e}.d{fill:url(#g1)}</style><path class="a" d="m0 0h156v42h-156z"/><path class="b" d="m-311.5-51h1920v4513.7h-1920z"/><g clip-path="url(#cp1)"><g clip-path="url(#cp2)"><g clip-path="url(#cp3)"><path class="c" d="m65.3 25.9c-1.3 0.6-2.6 0.8-4 0.8-4.1 0-7-2.6-7-6.4 0-3.8 2.9-6.4 7.1-6.4 2.2 0 4.1 0.8 5.6 2.3l3.3-2.7c-2.1-2.3-5.3-3.5-9.1-3.5-7 0-12 4.3-12 10.3 0 6 5 10.4 11.9 10.4 3.1 0 6.4-0.9 8.8-2.6v-8.1h-4.6z"/><path class="c" d="m78.8 17v-2h-4.6v15.3h4.9v-7.2c0-3 1.7-4.3 4.4-4.3 0.4 0 0.7 0 1.1 0v-4.1c-2.6 0-4.6 0.8-5.8 2.3z"/><path fill-rule="evenodd" class="c" d="m86.1 22.6c0-4.6 3.9-7.9 9.2-7.9 5.3 0 9.2 3.3 9.2 7.9 0 4.7-3.9 7.9-9.2 7.9-5.3 0-9.2-3.2-9.2-7.9zm13.5 0c0-2.6-1.9-4.2-4.3-4.2-2.4 0-4.3 1.6-4.3 4.2 0 2.7 1.9 4.3 4.3 4.3 2.4 0 4.3-1.6 4.3-4.3z"/><path class="c" d="m119.2 15l-4.8 10.4-4.6-10.4h-5l7 15.3h5l7.1-15.3z"/><path fill-rule="evenodd" class="c" d="m141.7 23.9h-12.7c0.5 1.9 2.3 3.1 4.8 3.1 1.8 0 3.1-0.5 4.2-1.5l2.6 2.6c-1.6 1.6-3.9 2.4-6.9 2.4-5.8 0-9.6-3.3-9.6-7.9 0-4.6 3.9-7.9 9-7.9 4.9 0 8.7 3.1 8.7 8 0 0.3-0.1 0.8-0.1 1.2zm-12.7-2.6h8.2c-0.3-1.9-1.9-3.2-4.1-3.2-2.2 0-3.8 1.2-4.1 3.2z"/><path class="c" d="m149.6 17v-2h-4.6v15.3h4.9v-7.2c0-3 1.7-4.3 4.4-4.3 0.4 0 0.7 0 1.1 0v-4.1c-2.6 0-4.6 0.8-5.8 2.3z"/><path class="d" d="m42.1 20.8c0 11.5-9.3 20.8-20.8 20.8-11.5 0-20.8-9.3-20.8-20.8 0-11.5 9.3-20.8 20.8-20.8 11.5 0 20.8 9.3 20.8 20.8z"/><path class="b" d="m21.3 32.3c0 1-0.7 1.9-1.7 1.9-0.9 0-1.7-0.9-1.7-1.9 0-1 0.8-1.9 1.7-1.9 1 0 1.7 0.9 1.7 1.9z"/><path class="b" d="m28.8 32.3c0 1-0.8 1.9-1.7 1.9-1 0-1.7-0.9-1.7-1.9 0-1 0.7-1.9 1.7-1.9 0.9 0 1.7 0.9 1.7 1.9z"/><path class="b" d="m24.1 20.6h1.1v2.6c0 1-0.7 1.9-1.5 2q-0.7 0.1-1.6 0.1c-4.9 0-6.5-6.6-4.4-10.9l-5.8-3.7c-0.5-0.3-1.3-0.1-1.6 0.5-0.3 0.6-0.1 1.4 0.4 1.8l2.3 1.4c-2.1 7.4 1.6 14.6 8.9 14.6q2.1 0 3.8-0.3 0.5-0.1 0.8-0.2 0.5-0.1 0.9-0.3c0.8-0.2 1.3-1.1 1.3-2.1v-8.4c0-0.4-0.3-0.8-0.6-0.8h-7.1c0 0 0.2 0.6 0.5 1.3 0.6 1.1 1.5 2.4 2.6 2.4z"/><path class="b" d="m15 10.6c2.6-2.9 6.6-3.2 10.3-3.2q0.6 0 1.1 0c0.2 0 0.2 0.2 0.2 0.3-0.8 2.2-1.5 3.3-3.6 3.4-1.7 0-3.2 0.6-4.3 1.8z"/></g></g></g></svg>