<svg width="25" height="24" viewBox="0 0 25 24" fill="none" xmlns="http://www.w3.org/2000/svg">
<path fill-rule="evenodd" clip-rule="evenodd" d="M1.49401 10.084C1.477 10.0156 1.47579 9.9443 1.49045 9.8754C1.50512 9.8065 1.53527 9.74185 1.57864 9.68634C1.62201 9.63083 1.67745 9.58592 1.74075 9.55502C1.80405 9.52412 1.87356 9.50804 1.94401 9.508H23.016C23.318 9.508 23.539 9.79099 23.466 10.084L20.539 21.79C20.489 21.9908 20.3732 22.1691 20.2101 22.2965C20.047 22.4239 19.846 22.4931 19.639 22.493H5.32001C5.11304 22.4931 4.912 22.4239 4.7489 22.2965C4.58579 22.1691 4.47002 21.9908 4.42001 21.79L1.49401 10.084ZM13.23 13.625C13.23 13.4261 13.151 13.2353 13.0103 13.0947C12.8697 12.954 12.6789 12.875 12.48 12.875C12.2811 12.875 12.0903 12.954 11.9497 13.0947C11.809 13.2353 11.73 13.4261 11.73 13.625V18.375C11.73 18.5739 11.809 18.7647 11.9497 18.9053C12.0903 19.046 12.2811 19.125 12.48 19.125C12.6789 19.125 12.8697 19.046 13.0103 18.9053C13.151 18.7647 13.23 18.5739 13.23 18.375V13.625ZM17.549 13.064C17.7358 13.1321 17.8879 13.2716 17.9719 13.4518C18.0559 13.632 18.065 13.8381 17.997 14.025L16.373 18.489C16.3393 18.5816 16.2877 18.6666 16.2212 18.7393C16.1546 18.8119 16.0744 18.8707 15.9851 18.9124C15.8959 18.954 15.7992 18.9777 15.7008 18.982C15.6024 18.9863 15.5041 18.9712 15.4115 18.9375C15.3189 18.9038 15.2339 18.8522 15.1612 18.7857C15.0886 18.7191 15.0298 18.6389 14.9881 18.5496C14.9465 18.4603 14.9228 18.3637 14.9185 18.2653C14.9142 18.1669 14.9293 18.0686 14.963 17.976L16.588 13.512C16.6561 13.3254 16.7954 13.1735 16.9754 13.0895C17.1553 13.0055 17.3623 12.9963 17.549 13.064ZM8.37201 13.512C8.33832 13.4194 8.28673 13.3344 8.22018 13.2617C8.15363 13.1891 8.07343 13.1303 7.98414 13.0886C7.89486 13.047 7.79825 13.0233 7.69982 13.019C7.6014 13.0147 7.50309 13.0298 7.41051 13.0635C7.31792 13.0972 7.23288 13.1488 7.16024 13.2153C7.08759 13.2819 7.02877 13.3621 6.98712 13.4514C6.94548 13.5406 6.92182 13.6373 6.91751 13.7357C6.9132 13.8341 6.92832 13.9324 6.96201 14.025L8.58701 18.489C8.62069 18.5816 8.67228 18.6666 8.73883 18.7393C8.80538 18.8119 8.88558 18.8707 8.97487 18.9124C9.06415 18.954 9.16076 18.9777 9.25919 18.982C9.35761 18.9863 9.45592 18.9712 9.5485 18.9375C9.64109 18.9038 9.72613 18.8522 9.79877 18.7857C9.87142 18.7191 9.93024 18.6389 9.97189 18.5496C10.0135 18.4603 10.0372 18.3637 10.0415 18.2653C10.0458 18.1669 10.0307 18.0686 9.99701 17.976L8.37201 13.512Z" fill="#3C3737"/>
<path d="M18.98 10.5L14.069 4.078C13.8823 3.83376 13.6418 3.63584 13.3662 3.49962C13.0907 3.36339 12.7874 3.29253 12.48 3.29253C12.1726 3.29253 11.8693 3.36339 11.5937 3.49962C11.3181 3.63584 11.0777 3.83376 10.891 4.078L5.97998 10.5" stroke="#3C3737" stroke-width="2" stroke-linecap="round" stroke-linejoin="round"/>
</svg>
