<svg width="78" height="60" viewBox="0 0 78 60" fill="none" xmlns="http://www.w3.org/2000/svg">
<g clip-path="url(#clip0_1_80)">
<path fill-rule="evenodd" clip-rule="evenodd" d="M1.49036 44.5674C0.98836 44.9324 0.892227 45.6158 1.27564 46.0938L12.0848 59.569C12.4682 60.047 13.1859 60.1385 13.6879 59.7734L24.9366 51.5932C25.4386 51.2281 25.5347 50.5447 25.1512 50.0667L14.3422 36.5915C13.9588 36.1136 13.241 36.022 12.739 36.387L1.49036 44.5674ZM18.5952 52.6399C19.7005 52.6399 20.5966 51.7866 20.5966 50.7342C20.5966 49.6816 19.7005 48.8284 18.5952 48.8284C17.4897 48.8284 16.5936 49.6816 16.5936 50.7342C16.5936 51.7866 17.4897 52.6399 18.5952 52.6399Z" fill="url(#paint0_linear_1_80)"/>
<path d="M49.1895 1.18394C44.9005 3.0897 42.3272 1.45619 42.3272 1.45619L45.1187 7.83529C45.3163 7.75961 45.5322 7.71797 45.7584 7.71797H51.4769C51.61 7.71797 51.7395 7.73239 51.8638 7.75967L54.6222 1.45619C54.6222 1.45619 52.0865 -0.103264 49.1895 1.18394Z" fill="url(#paint1_linear_1_80)"/>
<path d="M47.4327 21.4085C47.1457 21.1458 47.0022 20.7802 47.0022 20.3118C47.0022 19.809 47.1517 19.4092 47.4506 19.1121C47.7616 18.8151 48.1741 18.6379 48.6883 18.5808V22.0426C48.1502 21.8827 47.7317 21.6713 47.4327 21.4085Z" fill="url(#paint2_linear_1_80)"/>
<path d="M51.092 26.9097C50.7929 27.2296 50.3804 27.4295 49.8542 27.5095V24.0306C50.3923 24.1906 50.8049 24.402 51.092 24.6647C51.3909 24.9161 51.5403 25.2702 51.5403 25.7272C51.5403 26.1842 51.3909 26.5783 51.092 26.9097Z" fill="url(#paint3_linear_1_80)"/>
<path fill-rule="evenodd" clip-rule="evenodd" d="M34.3381 29.1046C34.9444 20.8457 42.6736 12.6553 44.7018 10.6385C44.993 10.8555 45.3598 10.9849 45.7584 10.9849H51.4769C51.8012 10.9849 52.1043 10.8994 52.3629 10.7506C54.4624 12.8464 61.4174 20.2963 62.6283 28.1368C63.1114 31.2645 62.7446 33.7291 61.7831 35.6211C61.1805 35.8473 60.6179 36.0662 60.0882 36.277C60.1697 36.1707 60.2455 36.063 60.3155 35.9541C61.0214 34.8564 61.2048 33.4451 60.1737 32.3241C59.2453 31.3147 57.5893 30.8593 55.4801 30.8593C54.6716 30.8593 53.7213 30.9733 52.7407 31.1139C52.3117 31.1755 51.886 31.2407 51.4529 31.307C50.8471 31.3998 50.227 31.4947 49.564 31.5849C47.3275 31.8892 45.0633 32.0666 43.1233 31.6972C42.1337 31.5088 41.0363 31.1735 39.8043 30.7697C39.5302 30.6799 39.2492 30.5866 38.9624 30.4913C37.9842 30.1665 36.939 29.8195 35.8676 29.5107C35.3691 29.367 34.8587 29.2298 34.3381 29.1046ZM53.1547 27.2352C53.4537 26.7326 53.6032 26.1956 53.6032 25.6243C53.6032 24.8703 53.4298 24.2819 53.083 23.8592C52.7361 23.425 52.3117 23.1108 51.8094 22.9166C51.3072 22.7109 50.6555 22.5167 49.8542 22.334V18.6323C50.2728 18.7351 50.6076 18.9293 50.8587 19.2149C51.1099 19.4891 51.2534 19.8032 51.2892 20.1575H53.4776C53.3939 19.2092 53.0292 18.4666 52.3834 17.9296C51.7496 17.3812 50.9065 17.0613 49.8542 16.9699V15.5817H48.6883V16.9699C47.5642 17.0727 46.6554 17.4383 45.9618 18.0667C45.2683 18.6837 44.9215 19.4663 44.9215 20.4145C44.9215 21.1686 45.0948 21.7626 45.4417 22.1968C45.8003 22.631 46.2309 22.9509 46.7331 23.1565C47.2354 23.3507 47.8871 23.545 48.6883 23.7392V27.5094C48.1981 27.4294 47.8213 27.2467 47.5582 26.961C47.2952 26.664 47.1457 26.2927 47.1098 25.8471H44.9215C44.9215 26.784 45.2683 27.538 45.9618 28.1093C46.6554 28.6805 47.5642 29.0175 48.6883 29.1203V30.5085H49.8542V29.1203C50.6315 29.0518 51.3012 28.8462 51.8632 28.5034C52.4372 28.1607 52.8678 27.738 53.1547 27.2352Z" fill="url(#paint4_linear_1_80)"/>
<path d="M24.8852 48.5556L15.7354 37.121C18.5947 34.1262 20.8822 30.8592 26.8867 29.7702C32.8913 28.6812 38.61 31.9482 42.899 32.765C47.188 33.5818 52.6206 31.9482 55.48 31.9482C63.486 31.9482 59.1971 39.0268 51.191 38.21C43.1849 37.3933 40.0396 39.0268 43.4708 39.5712C46.902 40.1158 50.6191 40.9325 54.0503 39.8435C57.4814 38.7545 60.6268 36.8487 68.9188 34.3985C75.5524 32.4383 77.0201 34.3078 76.9249 35.4875C71.2062 38.7545 58.5108 45.942 53.4784 48.5556C47.188 51.8225 48.3316 52.3671 40.0396 49.9168C33.406 47.9566 27.1727 48.1926 24.8852 48.5556Z" fill="url(#paint5_linear_1_80)"/>
<path d="M44.6144 9.3517C44.6144 8.90059 44.9985 8.53491 45.4722 8.53491H51.7628C52.2365 8.53491 52.6206 8.90059 52.6206 9.3517C52.6206 9.80276 52.2365 10.1684 51.7628 10.1684H45.4722C44.9985 10.1684 44.6144 9.80276 44.6144 9.3517Z" fill="#F54748"/>
</g>
<defs>
<linearGradient id="paint0_linear_1_80" x1="13.2135" y1="36.1634" x2="13.2135" y2="59.997" gradientUnits="userSpaceOnUse">
<stop stop-color="#E32223"/>
<stop offset="1" stop-color="#FD6C6D"/>
</linearGradient>
<linearGradient id="paint1_linear_1_80" x1="48.5893" y1="0.674802" x2="48.5893" y2="36.277" gradientUnits="userSpaceOnUse">
<stop stop-color="#FF7374"/>
<stop offset="1" stop-color="#E22123"/>
</linearGradient>
<linearGradient id="paint2_linear_1_80" x1="48.5893" y1="0.674832" x2="48.5893" y2="36.277" gradientUnits="userSpaceOnUse">
<stop stop-color="#FF7374"/>
<stop offset="1" stop-color="#E22123"/>
</linearGradient>
<linearGradient id="paint3_linear_1_80" x1="48.5893" y1="0.674859" x2="48.5893" y2="36.2771" gradientUnits="userSpaceOnUse">
<stop stop-color="#FF7374"/>
<stop offset="1" stop-color="#E22123"/>
</linearGradient>
<linearGradient id="paint4_linear_1_80" x1="48.5893" y1="0.674781" x2="48.5893" y2="36.277" gradientUnits="userSpaceOnUse">
<stop stop-color="#FF7374"/>
<stop offset="1" stop-color="#E22123"/>
</linearGradient>
<linearGradient id="paint5_linear_1_80" x1="51.0584" y1="31.3243" x2="53.5829" y2="47.8387" gradientUnits="userSpaceOnUse">
<stop stop-color="#E22123"/>
<stop offset="1" stop-color="#FF7374"/>
</linearGradient>
<clipPath id="clip0_1_80">
<rect width="77.53" height="59.9935" fill="white" transform="translate(0.220001 0.0032959)"/>
</clipPath>
</defs>
</svg>
