<svg width="118" height="60" viewBox="0 0 118 60" fill="none" xmlns="http://www.w3.org/2000/svg">
<rect width="118" height="60" fill="#F5F5F5"/>
<rect width="1920" height="4513.69" transform="translate(-533.5 -1209)" fill="white"/>
<rect width="1920" height="788" transform="translate(-534 -370)" fill="#FEF5F5"/>
<rect x="-92" y="-50" width="302.66" height="328" rx="12" fill="white"/>
<g clip-path="url(#clip0_0_1)">
<g clip-path="url(#clip1_0_1)">
<g clip-path="url(#clip2_0_1)">
<path fill-rule="evenodd" clip-rule="evenodd" d="M100.518 54.2783C103.614 54.2783 105.771 51.9329 105.771 49.4635C105.771 46.994 103.614 44.6486 100.518 44.6486C97.4234 44.6486 95.2659 46.994 95.2659 49.4635C95.2659 51.9329 97.4234 54.2783 100.518 54.2783ZM100.518 58.6554C105.837 58.6554 110.148 54.54 110.148 49.4635C110.148 44.3869 105.837 40.2715 100.518 40.2715C95.2001 40.2715 90.8888 44.3869 90.8888 49.4635C90.8888 54.54 95.2001 58.6554 100.518 58.6554Z" fill="url(#paint0_linear_0_1)"/>
<path fill-rule="evenodd" clip-rule="evenodd" d="M40.1141 54.2783C43.2092 54.2783 45.3666 51.9329 45.3666 49.4635C45.3666 46.994 43.2092 44.6486 40.1141 44.6486C37.0191 44.6486 34.8616 46.994 34.8616 49.4635C34.8616 51.9329 37.0191 54.2783 40.1141 54.2783ZM40.1141 58.6554C45.4323 58.6554 49.7438 54.54 49.7438 49.4635C49.7438 44.3869 45.4323 40.2715 40.1141 40.2715C34.7958 40.2715 30.4845 44.3869 30.4845 49.4635C30.4845 54.54 34.7958 58.6554 40.1141 58.6554Z" fill="url(#paint1_linear_0_1)"/>
<path fill-rule="evenodd" clip-rule="evenodd" d="M24.9387 0.00244141C23.1234 0.00244141 21.609 1.38975 21.4503 3.19814L21.0396 7.88125H30.4849C31.4518 7.88125 32.2357 8.66513 32.2357 9.6321C32.2357 10.5991 31.4518 11.3829 30.4849 11.3829H20.7323L20.4252 14.8846H26.9831C27.9502 14.8846 28.734 15.6685 28.734 16.6355C28.734 17.6024 27.9502 18.3864 26.9831 18.3864H20.118L19.8109 21.888H31.3603C32.3273 21.888 33.1112 22.6719 33.1112 23.6389C33.1112 24.6058 32.3273 25.3898 31.3603 25.3898H19.5037L19.1966 28.8914H27.8586C28.8255 28.8914 29.6094 29.6753 29.6094 30.6423C29.6094 31.6092 28.8255 32.393 27.8586 32.393H18.8894L17.6875 46.0939C17.5081 48.1407 19.1211 49.9016 21.1759 49.9016H28.734C28.734 43.6163 33.8293 38.5211 40.1146 38.5211C46.3998 38.5211 51.495 43.6163 51.495 49.9016H80.7047H81.6087H89.1382C89.1382 43.6163 94.2335 38.5211 100.519 38.5211C106.804 38.5211 111.899 43.6163 111.899 49.9016H113.049C114.872 49.9016 116.391 48.5022 116.539 46.6847L117.908 29.909C117.984 28.9776 117.685 28.0545 117.077 27.3452L105.944 14.3567C105.279 13.5805 104.308 13.1338 103.285 13.1338H90.3638C89.763 13.1338 89.1848 12.9799 88.6771 12.7007L89.6064 3.87071C89.8241 1.80318 88.203 0.00244141 86.1241 0.00244141H24.9387ZM91.7333 16.1642C91.7509 15.9362 91.9411 15.7601 92.1698 15.7601H101.503C101.992 15.7601 102.458 15.9642 102.789 16.3234L112.097 26.4059C112.355 26.6864 112.157 27.1405 111.775 27.1405H91.3618C91.1067 27.1405 90.9058 26.9236 90.9254 26.6693L91.7333 16.1642ZM48.0741 17.0347L48.4102 15.1648H39.8171L37.2328 29.7668H39.628L40.7625 23.3167H45.5949L45.931 21.4678H41.0988L41.876 17.0347H48.0741ZM59.0131 16.1522C58.2567 15.4939 57.143 15.1648 55.6724 15.1648H50.6299L48.0457 29.7668H50.4409L51.4704 23.926H53.3192L55.6303 29.7668H58.4878L55.9455 23.7159C57.136 23.4357 58.0745 22.9035 58.7609 22.1192C59.4612 21.3348 59.8954 20.4734 60.0635 19.5349C60.1195 19.1706 60.1475 18.8976 60.1475 18.7155C60.1475 17.665 59.7694 16.8106 59.0131 16.1522ZM57.6683 18.9256C57.6683 19.1217 57.6474 19.3248 57.6053 19.5349C57.4793 20.3053 57.143 20.9145 56.5968 21.3628C56.0645 21.811 55.3503 22.0351 54.4538 22.0351H51.8065L52.689 17.0347H55.3362C56.1206 17.0347 56.7018 17.2028 57.0801 17.5389C57.4723 17.8611 57.6683 18.3233 57.6683 18.9256ZM65.1866 21.4468L65.9639 17.0136H71.6366L71.9729 15.1437H63.9049L61.3206 29.7668H69.3886L69.7247 27.8969H64.052L64.8714 23.2957H69.9138L70.229 21.4468H65.1866ZM76.2046 21.4468L76.9819 17.0136H82.6547L82.9908 15.1437H74.923L72.3387 29.7668H80.4065L80.7428 27.8969H75.07L75.8894 23.2957H80.9318L81.247 21.4468H76.2046Z" fill="url(#paint2_linear_0_1)"/>
<path fill-rule="evenodd" clip-rule="evenodd" d="M12.9759 4.37964C12.009 4.37964 11.2251 5.16351 11.2251 6.13048C11.2251 7.09745 12.009 7.88132 12.9759 7.88132H33.9861C34.953 7.88132 35.737 7.09745 35.737 6.13048C35.737 5.16351 34.953 4.37964 33.9861 4.37964H12.9759ZM5.97254 11.383C5.00557 11.383 4.2217 12.1669 4.2217 13.1339C4.2217 14.1008 5.00557 14.8847 5.97254 14.8847H33.9861C34.953 14.8847 35.737 14.1008 35.737 13.1339C35.737 12.1669 34.953 11.383 33.9861 11.383H5.97254ZM7.72338 20.1373C7.72338 19.1703 8.50727 18.3864 9.47423 18.3864H33.9861C34.953 18.3864 35.737 19.1703 35.737 20.1373C35.737 21.1042 34.953 21.8881 33.9861 21.8881H9.47423C8.50727 21.8881 7.72338 21.1042 7.72338 20.1373ZM2.47084 25.3898C1.50388 25.3898 0.720001 26.1737 0.720001 27.1407C0.720001 28.1076 1.50388 28.8914 2.47084 28.8914H33.9861C34.953 28.8914 35.737 28.1076 35.737 27.1407C35.737 26.1737 34.953 25.3898 33.9861 25.3898H2.47084Z" fill="url(#paint3_linear_0_1)"/>
</g>
</g>
</g>
<defs>
<linearGradient id="paint0_linear_0_1" x1="100.518" y1="40.2715" x2="100.518" y2="58.6554" gradientUnits="userSpaceOnUse">
<stop stop-color="#FF6162"/>
<stop offset="1" stop-color="#F43435"/>
</linearGradient>
<linearGradient id="paint1_linear_0_1" x1="40.1141" y1="40.2715" x2="40.1141" y2="58.6554" gradientUnits="userSpaceOnUse">
<stop stop-color="#FF6162"/>
<stop offset="1" stop-color="#F43435"/>
</linearGradient>
<linearGradient id="paint2_linear_0_1" x1="28.4547" y1="0.00244743" x2="116.578" y2="54.5763" gradientUnits="userSpaceOnUse">
<stop stop-color="#FF6263"/>
<stop offset="1" stop-color="#F43435"/>
</linearGradient>
<linearGradient id="paint3_linear_0_1" x1="4.48585" y1="4.37964" x2="42.2908" y2="18.6565" gradientUnits="userSpaceOnUse">
<stop stop-color="#F43435"/>
<stop offset="0.458015" stop-color="#FF6364"/>
<stop offset="0.651879" stop-color="#FE5E5E"/>
<stop offset="1" stop-color="#FE5C5D"/>
</linearGradient>
<clipPath id="clip0_0_1">
<rect width="117.2" height="60" fill="white" transform="translate(0.720001)"/>
</clipPath>
<clipPath id="clip1_0_1">
<rect width="117.2" height="60" fill="white" transform="translate(0.720001)"/>
</clipPath>
<clipPath id="clip2_0_1">
<rect width="117.2" height="59.9952" fill="white" transform="translate(0.720001 0.00244141)"/>
</clipPath>
</defs>
</svg>
