<svg width="65" height="60" viewBox="0 0 65 60" fill="none" xmlns="http://www.w3.org/2000/svg">
<g clip-path="url(#clip0_1_94)">
<path fill-rule="evenodd" clip-rule="evenodd" d="M4.54279 12.8837H2.70035C1.68281 12.8837 0.85791 13.7076 0.85791 14.7237V28.0638C0.85791 29.08 1.68281 29.9039 2.70035 29.9039H24.349C25.3665 29.9039 26.1915 29.08 26.1915 28.0638V14.7237C26.1915 13.7076 25.3665 12.8837 24.349 12.8837H22.5066V8.9737C22.5066 4.01969 18.4853 0.00366211 13.5247 0.00366211C8.56412 0.00366211 4.54279 4.01969 4.54279 8.9737V12.8837ZM6.38523 12.8837H20.6641V8.9737C20.6641 5.03589 17.4677 1.84367 13.5247 1.84367C9.58166 1.84367 6.38523 5.03589 6.38523 8.9737V12.8837ZM14.4078 20.441C14.8468 20.1534 15.1368 19.6574 15.1368 19.0938C15.1368 18.2046 14.4151 17.4837 13.5247 17.4837C12.6343 17.4837 11.9125 18.2046 11.9125 19.0938C11.9125 19.6574 12.2025 20.1534 12.6415 20.441C12.6168 20.5242 12.6035 20.6125 12.6035 20.7038V22.5438C12.6035 23.0519 13.0159 23.4638 13.5247 23.4638C14.0335 23.4638 14.4459 23.0519 14.4459 22.5438V20.7038C14.4459 20.6125 14.4325 20.5242 14.4078 20.441Z" fill="url(#paint0_linear_1_94)"/>
<path fill-rule="evenodd" clip-rule="evenodd" d="M18.3607 31.7439V47.844C18.3607 50.3845 20.4229 52.444 22.9667 52.444H45.6168L56.0645 59.7162C56.6753 60.1412 57.5125 59.7049 57.5125 58.9614V52.444H59.8156C62.3594 52.444 64.4217 50.3845 64.4217 47.844V27.1439C64.4217 24.6033 62.3594 22.5438 59.8156 22.5438H28.0335V28.0638C28.0335 30.0963 26.3837 31.7439 24.3486 31.7439H18.3607ZM29.4153 30.8239C29.4153 30.3157 29.8277 29.9039 30.3365 29.9039H52.4458C52.9546 29.9039 53.367 30.3157 53.367 30.8239C53.367 31.332 52.9546 31.7439 52.4458 31.7439H30.3365C29.8277 31.7439 29.4153 31.332 29.4153 30.8239ZM29.4153 37.2639C29.4153 36.7557 29.8277 36.3439 30.3365 36.3439H52.4458C52.9546 36.3439 53.367 36.7557 53.367 37.2639C53.367 37.7721 52.9546 38.1839 52.4458 38.1839H30.3365C29.8277 38.1839 29.4153 37.7721 29.4153 37.2639ZM30.3365 42.784C29.8277 42.784 29.4153 43.1958 29.4153 43.7039C29.4153 44.212 29.8277 44.6239 30.3365 44.6239H52.4458C52.9546 44.6239 53.367 44.212 53.367 43.7039C53.367 43.1958 52.9546 42.784 52.4458 42.784H30.3365Z" fill="url(#paint1_linear_1_94)"/>
</g>
<defs>
<linearGradient id="paint0_linear_1_94" x1="13.5247" y1="0.00366211" x2="13.5247" y2="29.9039" gradientUnits="userSpaceOnUse">
<stop stop-color="#FF7374"/>
<stop offset="1" stop-color="#E22123"/>
</linearGradient>
<linearGradient id="paint1_linear_1_94" x1="41.3912" y1="22.5438" x2="41.3912" y2="59.883" gradientUnits="userSpaceOnUse">
<stop stop-color="#FF7374"/>
<stop offset="1" stop-color="#E22123"/>
</linearGradient>
<clipPath id="clip0_1_94">
<rect width="64.34" height="59.9927" fill="white" transform="translate(0.470001 0.00366211)"/>
</clipPath>
</defs>
</svg>
